<svg xmlns="http://www.w3.org/2000/svg" xmlns:xlink="http://www.w3.org/1999/xlink" width="17" height="16" viewBox="0 0 17 16"><defs><path id="rryla" d="M1403 114.06c0 2.6-2.08 4.95-4.71 4.95a3.34 3.34 0 0 1-2.37-.88l-.07-.03s-.82.18-1.19.18a7.5 7.5 0 0 1-7.49-7.4c0-.1.05-.22.05-.22a4.82 4.82 0 0 1-1.21-2.88 4.9 4.9 0 0 1 4.88-4.77c.86 0 1.82.37 2.51.76l.05-.03a7.18 7.18 0 0 1 8.49 7.34l.04.1c.64.8 1.01 1.8 1.01 2.88zm-9.67-5.66c.24-.36.88-.63 1.92-.52.8.17 1.3.55 1.9.96 0 0 .64.25 1.03-.24.47-.63 0-1.12 0-1.12s-.47-.55-1.03-.75a6.71 6.71 0 0 0-2.36-.41 5 5 0 0 0-2.59.75c-.83.5-1.48 1.26-1.48 2.09 0 .91.64 1.56 1.36 1.93.73.38 1.54.6 2.41.69.97.08 1.6.41 1.84.77.24.35.24.7 0 1.06-.24.35-.82.61-1.79.61a4.12 4.12 0 0 1-2.59-1.07s-.5-.54-1.14.01c-.76.61-.16 1.17-.16 1.17.48.42.97.82 1.65 1.06.68.25 1.53.5 2.55.5a5 5 0 0 0 2.81-.93c.8-.54 1.26-1.19 1.26-1.93 0-.96-.43-1.66-1.18-2.1-.76-.43-1.6-.69-2.52-.77-.87-.13-1.6-.36-1.84-.61-.25-.25-.3-.8-.05-1.15z"/></defs><g><g transform="translate(-1386 -103)"><use fill="#7bae23" xlink:href="#rryla"/></g></g></svg>