<svg xmlns="http://www.w3.org/2000/svg" xmlns:xlink="http://www.w3.org/1999/xlink" width="35" height="36" viewBox="0 0 35 36"><defs><path id="9qova" d="M82 283h31a2 2 0 0 1 2 2v31a2 2 0 0 1-2 2H82a2 2 0 0 1-2-2v-31c0-1.1.9-2 2-2z"/><path id="9qovd" d="M87 290h21v3H87zm0 6h21v3H87zm0 6h21v3H87zm0 6h21v3H87z"/><mask id="9qovc" width="2" height="2" x="-1" y="-1"><path fill="#fff" d="M80 283h35v35H80z"/><use xlink:href="#9qova"/></mask><filter id="9qovb" width="55" height="56" x="70" y="273" filterUnits="userSpaceOnUse"><feOffset dy="1" in="SourceGraphic" result="FeOffset1023Out"/><feGaussianBlur in="FeOffset1023Out" result="FeGaussianBlur1024Out" stdDeviation="0 0"/></filter></defs><g><g transform="translate(-80 -283)"><g filter="url(#9qovb)"><use fill="none" stroke-width="0" mask="url(&quot;#9qovc&quot;)" xlink:href="#9qova"/><use fill="#fff" xlink:href="#9qova"/></g><use fill="#7bae23" xlink:href="#9qova"/></g><g transform="translate(-80 -283)"><use fill="#fff" xlink:href="#9qovd"/></g></g></svg>