<svg xmlns="http://www.w3.org/2000/svg" xmlns:xlink="http://www.w3.org/1999/xlink" width="105" height="73" viewBox="0 0 105 73"><defs><path id="6f9ja" d="M415.57 174l-.21-.34v-.86l13.2-22.73h18"/><path id="6f9jb" d="M457.37 101l-84.04.2 42.61 72.78L457.37 101"/><path id="6f9jc" d="M373.95 101.02l-21 37.06h42l-21-37.06"/><path id="6f9jd" d="M406 179v-34h50v34zm44.57-28.93h-18l-13.21 22.73v.86l.21.34"/><path id="6f9jg" d="M372 176V99h87v77zm85.37-74l-84.04.2 42.61 72.78L457.37 102"/><path id="6f9jj" d="M343.5 146V94h60v52zm26.95-42.98l-21 37.06h42l-21-37.06"/><filter id="6f9je" width="200%" height="200%" x="-50%" y="-50%"><feGaussianBlur in="SourceGraphic" result="FeGaussianBlur1052Out" stdDeviation="2.5 2.5"/></filter><mask id="6f9jf"><use fill="#fff" xlink:href="#6f9ja"/></mask><filter id="6f9jh" width="200%" height="200%" x="-50%" y="-50%"><feGaussianBlur in="SourceGraphic" result="FeGaussianBlur1062Out" stdDeviation="0.5 0.5"/></filter><mask id="6f9ji"><use fill="#fff" xlink:href="#6f9jb"/></mask><filter id="6f9jk" width="200%" height="200%" x="-50%" y="-50%"><feGaussianBlur in="SourceGraphic" result="FeGaussianBlur1072Out" stdDeviation="2.5 2.5"/></filter><mask id="6f9jl"><use fill="#fff" xlink:href="#6f9jc"/></mask></defs><g><g transform="translate(-353 -101)"><use fill="#72a220" xlink:href="#6f9ja"/><use fill-opacity=".25" stroke="#000" stroke-opacity=".25" stroke-width="0" filter="url(#6f9je)" mask="url(&quot;#6f9jf&quot;)" xlink:href="#6f9jd"/></g><g transform="translate(-353 -101)"><use fill="#84bb26" xlink:href="#6f9jb"/><use fill="#fff" fill-opacity=".35" stroke="#fff" stroke-opacity=".35" stroke-width="0" filter="url(#6f9jh)" mask="url(&quot;#6f9ji&quot;)" xlink:href="#6f9jg"/></g><g transform="translate(-353 -101)"><use fill="#72a220" xlink:href="#6f9jc"/><use fill-opacity=".25" stroke="#000" stroke-opacity=".25" stroke-width="0" filter="url(#6f9jk)" mask="url(&quot;#6f9jl&quot;)" xlink:href="#6f9jj"/></g></g></svg>